Coordinates
version=1
nRows=5
nColumns=42
inDegrees=yes

Units are S.I. units (second, meters, Newtons, ...)
If the header above contains a line with 'inDegrees', this indicates whether rotational values are in degrees (yes) or radians (no).

endheader
time	pelvis_tilt	pelvis_list	pelvis_rotation	pelvis_tx	pelvis_ty	pelvis_tz	hip_flexion_r	hip_adduction_r	hip_rotation_r	knee_angle_r	knee_adduction_r	knee_angle_r_beta	ankle_angle_r	subtalar_angle_r	mtp_angle_r	hip_flexion_l	hip_adduction_l	hip_rotation_l	knee_angle_l	knee_adduction_l	knee_angle_l_beta	ankle_angle_l	subtalar_angle_l	mtp_angle_l	lumbar_extension	lumbar_bending	lumbar_rotation	arm_flex_r	arm_add_r	arm_rot_r	elbow_flex_r	pro_sup_r	wrist_flex_r	wrist_dev_r	arm_flex_l	arm_add_l	arm_rot_l	elbow_flex_l	pro_sup_l	wrist_flex_l	wrist_dev_l
      0.45000000	      3.53457604	     -1.88146142	     -3.68513900	     -2.88554913	      0.82361062	      0.16131450	     -5.71758454	      4.69060265	    -38.93868921	     34.32972413	    -25.97255408	      0.59916672	     26.69512605	     35.04757128	     -9.08987041	     35.37840190	      2.58816394	    -15.31880192	     29.13295984	    -12.60327076	      0.50846607	      6.05585147	      3.73424046	     -9.08987041	    -22.08612573	     -0.05793925	      7.47339754	     23.26723804	    -18.28094929	      9.08874659	     51.01225528	     90.00000001	      0.00000000	      0.00000000	     -9.47529542	    -10.38779294	     17.44090466	     27.01801984	     90.00000001	      0.00000000	      0.00000000
      0.46000000	      3.54257698	     -1.35806914	     -3.53278532	     -2.87184298	      0.82363760	      0.15977991	     -5.79681968	      3.74768162	    -38.89511428	     35.88287187	    -26.43456913	      0.62627426	     24.80954835	     34.39924831	     -8.95050924	     35.25223480	      3.57048612	    -13.87660463	     30.85062382	    -12.43298204	      0.53844496	      5.28012195	      0.86694311	     -8.95050924	    -22.02958921	     -0.73481563	      7.23693026	     22.55160859	    -18.11449226	      8.42795134	     51.26424299	     90.00000001	      0.00000000	      0.00000000	     -9.16883678	    -10.68324619	     17.82263763	     26.90592584	     90.00000001	      0.00000000	      0.00000000
      0.47000000	      3.62111613	     -0.80746141	     -3.36547992	     -2.85815333	      0.82404681	      0.15820706	     -5.82007445	      2.74301023	    -38.89320811	     37.57116767	    -26.91561413	      0.65574058	     22.55259744	     33.93156063	     -8.92395853	     35.13446033	      4.39867201	    -13.49084983	     32.60768625	    -12.46533540	      0.56911149	      5.48217472	      0.05374897	     -8.92395853	    -22.06266185	     -1.42979248	      6.90923402	     21.93140078	    -17.89431613	      8.32300230	     51.19268572	     90.00000001	      0.00000000	      0.00000000	     -8.85881847	    -10.80632495	     17.92882128	     26.94171969	     90.00000001	      0.00000000	      0.00000000
      0.48000000	      3.74459186	     -0.25775661	     -3.16152841	     -2.84469123	      0.82485080	      0.15648110	     -5.69718043	      1.71966549	    -38.88865492	     39.51493261	    -27.40242640	      0.68966568	     19.95640882	     32.85141739	     -8.89682007	     34.82146431	      5.28154309	    -12.75856962	     34.19337825	    -12.27986959	      0.59678703	      5.77832767	     -1.30914138	     -8.89682007	    -22.17664306	     -2.08005335	      6.50680242	     21.29468147	    -17.65990104	      8.10640589	     51.14885804	     90.00000001	      0.00000000	      0.00000000	     -8.41051013	    -11.03046813	     18.08702181	     26.95807152	     90.00000001	      0.00000000	      0.00000000
      0.49000000	      3.80869498	      0.28185454	     -2.76043747	     -2.83168415	      0.82600030	      0.15457624	     -5.32019682	      0.84229726	    -38.81021633	     41.72861820	    -27.85032798	      0.72830178	     17.36057684	     29.97151166	     -8.73806535	     34.31177152	      6.36995878	    -10.53335817	     35.57780024	    -11.33798266	      0.62094975	      4.90680789	     -6.01263670	     -8.73806535	    -22.28576903	     -2.68383566	      6.02271838	     20.61950140	    -17.21896782	      7.28626943	     50.97306569	     90.00000001	      0.00000000	      0.00000000	     -7.71019408	    -11.50817738	     19.23435041	     26.93571318	     90.00000001	      0.00000000	      0.00000000
